<svg aria-hidden="true" style="position: absolute; width: 0; height: 0; overflow: hidden;" version="1.1" xmlns="http://www.w3.org/2000/svg" xmlns:xlink="http://www.w3.org/1999/xlink">
<defs>
<symbol id="icon-tv" viewBox="0 0 32 32">
<title>tv</title>
<path d="M30.662 9.003c-2.775-0.399-5.731-0.688-8.815-0.851l5.153-5.153-2-2-7.017 7.017c-0.656-0.011-1.317-0.017-1.983-0.017v0l-8-8-2 2 6.069 6.069c-3.779 0.133-7.386 0.454-10.731 0.935-0.86 3.366-1.338 7.086-1.338 10.997s0.477 7.63 1.338 10.997c4.489 0.645 9.448 1.003 14.662 1.003s10.173-0.358 14.662-1.003c0.86-3.366 1.338-7.086 1.338-10.997s-0.477-7.63-1.338-10.997zM26.997 27.331c-3.367 0.43-7.086 0.669-10.997 0.669s-7.63-0.239-10.997-0.669c-0.645-2.244-1.003-4.724-1.003-7.331s0.358-5.087 1.003-7.331c3.366-0.43 7.086-0.669 10.997-0.669s7.63 0.239 10.996 0.669c0.645 2.244 1.004 4.724 1.004 7.331s-0.358 5.087-1.003 7.331z"></path>
</symbol>
<symbol id="icon-mobile" viewBox="0 0 32 32">
<title>mobile</title>
<path d="M1.5 32h14c0.276 0 0.5-0.224 0.5-0.5s-0.224-0.5-0.5-0.5h-14c-0.276 0-0.5-0.224-0.5-0.5v-29c0-0.276 0.224-0.5 0.5-0.5h21c0.276 0 0.5 0.224 0.5 0.5v5c0 0.276 0.224 0.5 0.5 0.5s0.5-0.224 0.5-0.5v-5c0-0.827-0.673-1.5-1.5-1.5h-21c-0.827 0-1.5 0.673-1.5 1.5v29c0 0.827 0.673 1.5 1.5 1.5zM18 10.5v20c0 0.827 0.673 1.5 1.5 1.5h11c0.827 0 1.5-0.673 1.5-1.5v-20c0-0.827-0.673-1.5-1.5-1.5h-11c-0.827 0-1.5 0.673-1.5 1.5zM31 10.5v20c0 0.276-0.224 0.5-0.5 0.5h-11c-0.276 0-0.5-0.224-0.5-0.5v-20c0-0.276 0.224-0.5 0.5-0.5h11c0.276 0 0.5 0.224 0.5 0.5zM11 28c0 0.552 0.448 1 1 1s1-0.448 1-1c0-0.552-0.448-1-1-1s-1 0.448-1 1zM24 28c0 0.552 0.448 1 1 1s1-0.448 1-1c0-0.552-0.448-1-1-1s-1 0.448-1 1z"></path>
</symbol>
<symbol id="icon-microphone" viewBox="0 0 32 32">
<title>microphone</title>
<path d="M23 18.536v-1.493h-0.996v1.493c0 3.574-2.959 6.472-6.533 6.473h-0.004c-3.574-0.001-6.471-2.898-6.471-6.473v-1.493h-0.996v1.493c0 3.763 2.791 6.844 6.41 7.362v3.021c-2.836 0.214-4.979 1.174-4.979 2.064 0 0.023 12.282 0.023 12.282 0 0-0.924-2.316-1.916-5.311-2.078v-2.995c3.679-0.463 6.598-3.568 6.598-7.374zM15.468 23.951c3.025 0 5.54-2.453 5.54-5.478v-1.431h-11.018v1.431c0 3.025 2.453 5.478 5.478 5.478zM21.008 7.475c0-3.025-2.515-5.477-5.54-5.477s-5.478 2.452-5.478 5.477v8.572h11.018v-8.572zM17.5 4.012c0.275 0 0.5 0.224 0.5 0.5s-0.225 0.5-0.5 0.5c-0.276 0-0.5-0.224-0.5-0.5s0.224-0.5 0.5-0.5zM15.5 4.012c0.275 0 0.5 0.224 0.5 0.5s-0.225 0.5-0.5 0.5c-0.276 0-0.5-0.224-0.5-0.5s0.224-0.5 0.5-0.5zM13.5 4.012c0.275 0 0.5 0.224 0.5 0.5s-0.225 0.5-0.5 0.5c-0.276 0-0.5-0.224-0.5-0.5s0.224-0.5 0.5-0.5zM11.5 15.012c-0.276 0-0.5-0.224-0.5-0.5s0.224-0.5 0.5-0.5c0.275 0 0.5 0.224 0.5 0.5s-0.225 0.5-0.5 0.5zM11.5 13.012c-0.276 0-0.5-0.224-0.5-0.5s0.224-0.5 0.5-0.5c0.275 0 0.5 0.224 0.5 0.5s-0.225 0.5-0.5 0.5zM11.5 11.012c-0.276 0-0.5-0.224-0.5-0.5s0.224-0.5 0.5-0.5c0.275 0 0.5 0.224 0.5 0.5s-0.225 0.5-0.5 0.5zM11.5 9.012c-0.276 0-0.5-0.224-0.5-0.5s0.224-0.5 0.5-0.5c0.275 0 0.5 0.224 0.5 0.5s-0.225 0.5-0.5 0.5zM12.5 7.012c-0.276 0-0.5-0.224-0.5-0.5s0.224-0.5 0.5-0.5c0.275 0 0.5 0.224 0.5 0.5s-0.225 0.5-0.5 0.5zM13.5 15.012c-0.276 0-0.5-0.224-0.5-0.5s0.224-0.5 0.5-0.5c0.275 0 0.5 0.224 0.5 0.5s-0.225 0.5-0.5 0.5zM13.5 13.012c-0.276 0-0.5-0.224-0.5-0.5s0.224-0.5 0.5-0.5c0.275 0 0.5 0.224 0.5 0.5s-0.225 0.5-0.5 0.5zM13.5 11.012c-0.276 0-0.5-0.224-0.5-0.5s0.224-0.5 0.5-0.5c0.275 0 0.5 0.224 0.5 0.5s-0.225 0.5-0.5 0.5zM13.5 9.012c-0.276 0-0.5-0.224-0.5-0.5s0.224-0.5 0.5-0.5c0.275 0 0.5 0.224 0.5 0.5s-0.225 0.5-0.5 0.5zM14.5 7.012c-0.276 0-0.5-0.224-0.5-0.5s0.224-0.5 0.5-0.5c0.275 0 0.5 0.224 0.5 0.5s-0.225 0.5-0.5 0.5zM15.5 15.012c-0.276 0-0.5-0.224-0.5-0.5s0.224-0.5 0.5-0.5c0.275 0 0.5 0.224 0.5 0.5s-0.225 0.5-0.5 0.5zM15.5 13.012c-0.276 0-0.5-0.224-0.5-0.5s0.224-0.5 0.5-0.5c0.275 0 0.5 0.224 0.5 0.5s-0.225 0.5-0.5 0.5zM15.5 11.012c-0.276 0-0.5-0.224-0.5-0.5s0.224-0.5 0.5-0.5c0.275 0 0.5 0.224 0.5 0.5s-0.225 0.5-0.5 0.5zM15.5 9.012c-0.276 0-0.5-0.224-0.5-0.5s0.224-0.5 0.5-0.5c0.275 0 0.5 0.224 0.5 0.5s-0.225 0.5-0.5 0.5zM16.5 7.012c-0.276 0-0.5-0.224-0.5-0.5s0.224-0.5 0.5-0.5c0.275 0 0.5 0.224 0.5 0.5s-0.225 0.5-0.5 0.5zM17.5 15.012c-0.276 0-0.5-0.224-0.5-0.5s0.224-0.5 0.5-0.5c0.275 0 0.5 0.224 0.5 0.5s-0.225 0.5-0.5 0.5zM17.5 13.012c-0.276 0-0.5-0.224-0.5-0.5s0.224-0.5 0.5-0.5c0.275 0 0.5 0.224 0.5 0.5s-0.225 0.5-0.5 0.5zM17.5 11.012c-0.276 0-0.5-0.224-0.5-0.5s0.224-0.5 0.5-0.5c0.275 0 0.5 0.224 0.5 0.5s-0.225 0.5-0.5 0.5zM17.5 9.012c-0.276 0-0.5-0.224-0.5-0.5s0.224-0.5 0.5-0.5c0.275 0 0.5 0.224 0.5 0.5s-0.225 0.5-0.5 0.5zM18.5 7.012c-0.276 0-0.5-0.224-0.5-0.5s0.224-0.5 0.5-0.5c0.275 0 0.5 0.224 0.5 0.5s-0.225 0.5-0.5 0.5zM19.5 15.012c-0.276 0-0.5-0.224-0.5-0.5s0.224-0.5 0.5-0.5c0.275 0 0.5 0.224 0.5 0.5s-0.225 0.5-0.5 0.5zM19.5 13.012c-0.276 0-0.5-0.224-0.5-0.5s0.224-0.5 0.5-0.5c0.275 0 0.5 0.224 0.5 0.5s-0.225 0.5-0.5 0.5zM19.5 11.012c-0.276 0-0.5-0.224-0.5-0.5s0.224-0.5 0.5-0.5c0.275 0 0.5 0.224 0.5 0.5s-0.225 0.5-0.5 0.5zM19.5 9.012c-0.276 0-0.5-0.224-0.5-0.5s0.224-0.5 0.5-0.5c0.275 0 0.5 0.224 0.5 0.5s-0.225 0.5-0.5 0.5z"></path>
</symbol>
<symbol id="icon-ticket" viewBox="0 0 39 32">
<title>ticket</title>
<path d="M39 19.438v5.562c0 1.104-0.896 2-2 2h-35c-1.104 0-2-0.896-2-2v-5.5c1.657 0 3-1.344 3-3 0-1.657-1.343-3-3-3v-5.5c0-1.104 0.896-2 2-2h35c1.104 0 2 0.896 2 2v5.438c-1.657 0-3 1.343-3 3 0 1.656 1.343 3 3 3zM34 11c0-1.104-0.896-2-2-2h-25c-1.104 0-2 0.896-2 2v11c0 1.104 0.896 2 2 2h25c1.104 0 2-0.896 2-2v-11zM32 23h-25c-0.553 0-1-0.448-1-1v-11c0-0.553 0.447-1 1-1h25c0.552 0 1 0.447 1 1v11c0 0.552-0.448 1-1 1zM12.47 15.538l-0.907-2.58-0.907 2.58-2.614 0.11 2.054 1.704-0.709 2.648 2.176-1.526 2.175 1.526-0.708-2.647 2.053-1.704-2.613-0.111zM20.47 15.538l-0.907-2.58-0.907 2.58-2.614 0.11 2.054 1.704-0.709 2.648 2.176-1.526 2.175 1.526-0.708-2.647 2.053-1.704-2.613-0.111zM28.47 15.538l-0.907-2.58-0.907 2.58-2.613 0.11 2.053 1.704-0.709 2.648 2.176-1.526 2.175 1.526-0.708-2.647 2.053-1.704-2.613-0.111z"></path>
</symbol>
<symbol id="icon-linux" viewBox="0 0 25 28">
<title>linux</title>
<path d="M10.359 6.422v0c-0.313 0.031-0.203 0.313-0.375 0.313-0.156 0.016-0.125-0.344 0.375-0.313zM11.719 6.641c-0.156 0.047-0.172-0.25-0.453-0.172v0c0.453-0.203 0.609 0.109 0.453 0.172zM6.234 13.312c-0.141-0.047-0.109 0.234-0.25 0.453-0.109 0.203-0.391 0.359-0.172 0.391v0c0.078 0.016 0.297-0.172 0.391-0.391 0.078-0.266 0.156-0.406 0.031-0.453zM19.594 18.922c0-0.281-0.609-0.547-0.859-0.656 0.422-1.406 0.234-1.969-0.047-3.297-0.219-1-1.141-2.359-1.859-2.781 0.187 0.156 0.531 0.609 0.891 1.297 0.625 1.172 1.25 2.906 0.844 4.344-0.156 0.562-0.531 0.641-0.781 0.656-1.094 0.125-0.453-1.313-0.906-3.266-0.516-2.188-1.047-2.344-1.172-2.516-0.641-2.844-1.344-2.562-1.547-3.625-0.172-0.953 0.828-1.734-0.531-2-0.422-0.078-1.016-0.5-1.25-0.531s-0.359-1.578 0.516-1.625c0.859-0.063 1.016 0.969 0.859 1.375-0.25 0.406 0.016 0.562 0.438 0.422 0.344-0.109 0.125-1.016 0.203-1.141-0.219-1.313-0.766-1.5-1.328-1.609-2.156 0.172-1.188 2.547-1.406 2.328-0.313-0.328-1.219-0.031-1.219-0.234 0.016-1.219-0.391-1.922-0.953-1.937-0.625-0.016-0.875 0.859-0.906 1.359-0.047 0.469 0.266 1.453 0.5 1.375 0.156-0.047 0.422-0.359 0.141-0.344-0.141 0-0.359-0.344-0.391-0.75-0.016-0.406 0.141-0.812 0.672-0.797 0.609 0.016 0.609 1.234 0.547 1.281-0.203 0.141-0.453 0.406-0.484 0.453-0.203 0.328-0.594 0.422-0.75 0.562-0.266 0.281-0.328 0.594-0.125 0.703 0.719 0.406 0.484 0.875 1.484 0.906 0.656 0.031 1.141-0.094 1.594-0.234 0.344-0.109 1.453-0.344 1.687-0.75 0.109-0.172 0.234-0.172 0.313-0.125 0.156 0.078 0.187 0.375-0.203 0.469-0.547 0.156-1.094 0.453-1.594 0.641-0.484 0.203-0.641 0.281-1.094 0.359-1.031 0.187-1.797-0.375-1.109 0.297 0.234 0.219 0.453 0.359 1.047 0.344 1.313-0.047 2.766-1.625 2.906-0.922 0.031 0.156-0.406 0.344-0.75 0.516-1.219 0.594-2.078 1.781-2.859 1.375-0.703-0.375-1.406-2.109-1.391-1.328 0.016 1.203-1.578 2.266-0.844 3.641-0.484 0.125-1.563 2.422-1.719 3.609-0.094 0.688 0.063 1.531-0.109 2-0.234 0.688-1.297-0.656-0.953-2.297 0.063-0.281 0-0.344-0.078-0.203-0.422 0.766-0.187 1.844 0.156 2.594 0.141 0.328 0.5 0.469 0.766 0.75 0.547 0.625 2.703 2.219 3.078 2.609 0.484 0.453 0.344 1.516-0.656 1.625v0c0.516 0.969 1.016 1.062 1 2.641 0.594-0.313 0.359-1 0.109-1.437-0.172-0.313-0.391-0.453-0.344-0.531 0.031-0.047 0.344-0.313 0.516-0.109 0.531 0.594 1.531 0.703 2.594 0.562 1.078-0.125 2.234-0.5 2.766-1.359 0.25-0.406 0.422-0.547 0.531-0.469 0.125 0.063 0.172 0.344 0.156 0.812-0.016 0.5-0.219 1.016-0.359 1.437-0.141 0.484-0.187 0.812 0.281 0.828 0.125-0.875 0.375-1.734 0.438-2.609 0.078-1-0.641-2.844 0.141-3.766 0.203-0.25 0.453-0.281 0.797-0.281 0.047-1.25 1.969-1.156 2.609-0.641zM9.781 6c0.063-0.391-0.125-0.672-0.219-0.703-0.187-0.047-0.156 0.234-0.063 0.203v0c0.063 0 0.141 0.094 0.109 0.234-0.031 0.187-0.016 0.313 0.125 0.313 0.016 0 0.047 0 0.047-0.047zM16.328 9.078c-0.063-0.297-0.281-0.187-0.531-0.344-0.297-0.187-0.359-0.5-0.469-0.391v0c-0.328 0.359 0.406 1.109 0.719 1.172 0.187 0.031 0.328-0.219 0.281-0.438zM13.547 5.75c0.016-0.375-0.313-0.562-0.391-0.547-0.203 0.016-0.141 0.109-0.047 0.141v0c0.125 0.031 0.25 0.25 0.281 0.484 0 0.031 0.156-0.031 0.156-0.078zM14.391 2.109c0.016-0.078-0.187-0.172-0.328-0.281-0.125-0.125-0.25-0.234-0.375-0.234-0.313 0.031-0.156 0.359-0.203 0.516v0c-0.063 0.172-0.297 0.313-0.141 0.438 0.141 0.109 0.234-0.172 0.531-0.281 0.078-0.031 0.438 0.016 0.516-0.156zM23.219 23.063c1.922 1.188-0.719 2.172-1.859 2.75-0.891 0.453-2.078 1.453-2.516 1.875-0.328 0.313-1.687 0.469-2.453 0.078-0.891-0.453-0.422-1.172-1.797-1.219-0.688-0.016-1.359-0.016-2.031-0.016-0.594 0.016-1.188 0.047-1.797 0.063-2.063 0.047-2.266 1.375-3.594 1.328-0.906-0.031-2.047-0.75-4.016-1.156-1.375-0.281-2.703-0.359-2.984-0.969s0.344-1.297 0.391-1.891c0.047-0.797-0.594-1.875-0.125-2.281 0.406-0.359 1.266-0.094 1.828-0.406 0.594-0.344 0.844-0.609 0.844-1.344 0.219 0.75-0.016 1.359-0.5 1.656-0.297 0.187-0.844 0.281-1.297 0.234-0.359-0.031-0.578 0.016-0.672 0.156-0.141 0.172-0.094 0.484 0.078 0.891s0.375 0.672 0.344 1.172c-0.016 0.5-0.578 1.094-0.484 1.516 0.031 0.156 0.187 0.297 0.578 0.406 0.625 0.172 1.766 0.344 2.875 0.609 1.234 0.313 2.516 0.875 3.313 0.766 2.375-0.328 1.016-2.875 0.641-3.484v0c-2.016-3.156-3.344-5.219-4.406-4.406-0.266 0.219-0.281-0.531-0.266-0.828 0.047-1.031 0.562-1.406 0.875-2.203 0.594-1.516 1.047-3.25 1.953-4.141 0.672-0.875 1.734-2.297 1.937-3.047-0.172-1.625-0.219-3.344-0.25-4.844-0.031-1.609 0.219-3.016 2.031-4 0.438-0.234 1.016-0.328 1.625-0.328 1.078-0.016 2.281 0.297 3.047 0.859 1.219 0.906 1.984 2.828 1.891 4.203-0.063 1.078 0.125 2.188 0.469 3.344 0.406 1.359 1.047 2.312 2.078 3.406 1.234 1.313 2.203 3.891 2.484 5.531 0.25 1.531-0.094 2.484-0.422 2.531-0.5 0.078-0.812 1.656-2.375 1.594-1-0.047-1.094-0.641-1.375-1.156-0.453-0.797-0.906-0.547-1.078 0.297-0.094 0.422-0.031 1.047 0.109 1.516 0.281 0.984 0.187 1.906 0.016 3.047-0.328 2.156 1.516 2.562 2.75 1.531 1.219-1.016 1.484-1.172 3.016-1.703 2.328-0.797 1.547-1.5 0.297-1.922-1.125-0.375-1.172-2.266-0.766-2.625 0.094 2.031 1.156 2.328 1.594 2.609z"></path>
</symbol>
<symbol id="icon-tripadvisor" viewBox="0 0 36 28">
<title>tripadvisor</title>
<path d="M10.172 15.578c0 0.812-0.656 1.469-1.453 1.469-0.812 0-1.469-0.656-1.469-1.469 0-0.797 0.656-1.453 1.469-1.453 0.797 0 1.453 0.656 1.453 1.453zM28.203 15.563c0 0.812-0.656 1.469-1.469 1.469s-1.469-0.656-1.469-1.469 0.656-1.453 1.469-1.453 1.469 0.641 1.469 1.453zM11.953 15.578c0-1.656-1.359-3.016-3.016-3.016-1.672 0-3.016 1.359-3.016 3.016 0 1.672 1.344 3.016 3.016 3.016 1.656 0 3.016-1.344 3.016-3.016zM29.969 15.563c0-1.656-1.344-3.016-3.016-3.016-1.656 0-3.016 1.359-3.016 3.016 0 1.672 1.359 3.016 3.016 3.016 1.672 0 3.016-1.344 3.016-3.016zM13.281 15.578c0 2.406-1.937 4.359-4.344 4.359s-4.359-1.953-4.359-4.359c0-2.391 1.953-4.344 4.359-4.344s4.344 1.953 4.344 4.344zM31.313 15.563c0 2.406-1.953 4.344-4.359 4.344-2.391 0-4.344-1.937-4.344-4.344s1.953-4.344 4.344-4.344c2.406 0 4.359 1.937 4.359 4.344zM16.25 15.609c0-3.984-3.234-7.219-7.219-7.219-3.969 0-7.203 3.234-7.203 7.219s3.234 7.219 7.203 7.219c3.984 0 7.219-3.234 7.219-7.219zM26.688 6.656c-2.578-1.125-5.484-1.734-8.687-1.734s-6.391 0.609-8.953 1.719c4.953 0.016 8.953 4.016 8.953 8.969 0-4.859 3.859-8.813 8.687-8.953zM34.172 15.609c0-3.984-3.219-7.219-7.203-7.219s-7.219 3.234-7.219 7.219 3.234 7.219 7.219 7.219 7.203-3.234 7.203-7.219zM30.016 6.766h5.984c-0.938 1.094-1.625 2.562-1.797 3.578 1.078 1.484 1.719 3.297 1.719 5.266 0 4.953-4.016 8.953-8.953 8.953-2.812 0-5.313-1.281-6.953-3.297 0 0-0.734 0.875-2.016 2.797-0.219-0.453-1.328-2.031-2-2.812-1.641 2.031-4.156 3.313-6.969 3.313-4.937 0-8.953-4-8.953-8.953 0-1.969 0.641-3.781 1.719-5.266-0.172-1.016-0.859-2.484-1.797-3.578h5.703c3.063-2.047 7.516-3.328 12.297-3.328s8.953 1.281 12.016 3.328z"></path>
</symbol>
<symbol id="icon-snapchat-ghost" viewBox="0 0 26 28">
<title>snapchat-ghost</title>
<path d="M13.25 2c2.812-0.031 5.141 1.547 6.312 4.078 0.359 0.766 0.422 1.953 0.422 2.797 0 1-0.078 1.984-0.141 2.984 0.125 0.063 0.297 0.109 0.438 0.109 0.562 0 1.031-0.422 1.594-0.422 0.531 0 1.297 0.375 1.297 1 0 1.5-3.141 1.219-3.141 2.531 0 0.234 0.094 0.453 0.187 0.672 0.75 1.641 2.172 3.219 3.859 3.922 0.406 0.172 0.812 0.266 1.25 0.359 0.281 0.063 0.438 0.266 0.438 0.547 0 1.062-2.703 1.5-3.422 1.609-0.313 0.484-0.078 1.625-0.906 1.625-0.641 0-1.281-0.203-1.969-0.203-0.328 0-0.656 0.016-0.969 0.078-1.859 0.313-2.484 2.312-5.531 2.312-2.938 0-3.641-2-5.453-2.312-0.328-0.063-0.656-0.078-0.984-0.078-0.703 0-1.375 0.234-1.937 0.234-0.875 0-0.609-1.156-0.938-1.656-0.719-0.109-3.422-0.547-3.422-1.609 0-0.281 0.156-0.484 0.438-0.547 0.438-0.094 0.844-0.187 1.25-0.359 1.672-0.688 3.125-2.281 3.859-3.922 0.094-0.219 0.187-0.438 0.187-0.672 0-1.313-3.156-1.062-3.156-2.516 0-0.609 0.719-1 1.266-1 0.484 0 0.969 0.406 1.578 0.406 0.172 0 0.344-0.031 0.5-0.109-0.063-0.984-0.141-1.969-0.141-2.969 0-0.844 0.063-2.047 0.422-2.812 1.375-2.969 3.703-4.047 6.813-4.078z"></path>
</symbol>
<symbol id="icon-goat" viewBox="0 0 24 24">
<title>goat</title>
<path d="M23.953 9.094c0.047 0.047 0.047 0.188 0 0.234l-1.172 1.5c-0.047 0.047-0.141 0.094-0.188 0.094l-0.703-0.141-0.328 1.031c-0.141 0.234-0.469 0.234-0.609 0l-0.656-1.406-1.078-0.234-2.203 5.25 0.797 6.375c0 0.141-0.094 0.188-0.188 0.188h-0.938c-0.094 0-0.141-0.047-0.188-0.141l-0.938-3.797-0.469-0.797-1.172 4.594c0 0.094-0.094 0.141-0.188 0.141h-0.984c-0.094 0-0.188-0.094-0.188-0.188l1.078-6.328h-6.328l-1.641 3.094 0.375 3.188c0.047 0.141-0.047 0.234-0.188 0.234h-0.938c-0.047 0-0.141 0-0.188-0.094l-1.313-4.781-1.594 1.828 0.281 2.813c0.047 0.141-0.047 0.234-0.188 0.234h-1.031c-0.094 0-0.188-0.047-0.188-0.094l-0.609-2.625 0.984-3.844v-6.75s-1.078-0.422-1.078-1.406h12.844c0 0 2.25 0.047 4.453-1.547 0 0-0.375-1.031 0.281-1.688 0 0 1.313 0.938 1.688 1.172 0.469 0.281 0.797-0.234 0.656-0.656-0.094-0.281-0.422-1.313-2.109-1.969-0.215-0.072-0.713-0.111-0.609-0.422 0-0.094 0.094-0.141 0.188-0.141 2.063 0.281 3.281 1.969 3.609 2.719 0.047 0.094 0.938 0.703 0.844 1.781 0 0.141 0 0.234 0.094 0.328z"></path>
</symbol>
<symbol id="icon-chevron-thin-left" viewBox="0 0 20 20">
<title>chevron-thin-left</title>
<path d="M13.891 17.418c0.268 0.272 0.268 0.709 0 0.979s-0.701 0.271-0.969 0l-7.83-7.908c-0.268-0.27-0.268-0.707 0-0.979l7.83-7.908c0.268-0.27 0.701-0.27 0.969 0s0.268 0.709 0 0.979l-7.141 7.419 7.141 7.418z"></path>
</symbol>
<symbol id="icon-chevron-thin-right" viewBox="0 0 20 20">
<title>chevron-thin-right</title>
<path d="M13.25 10l-7.141-7.42c-0.268-0.27-0.268-0.707 0-0.979 0.268-0.27 0.701-0.27 0.969 0l7.83 7.908c0.268 0.271 0.268 0.709 0 0.979l-7.83 7.908c-0.268 0.271-0.701 0.27-0.969 0s-0.268-0.707 0-0.979l7.141-7.417z"></path>
</symbol>
<symbol id="icon-chevron-with-circle-right" viewBox="0 0 20 20">
<title>chevron-with-circle-right</title>
<path d="M11 10l-2.302-2.506c-0.196-0.198-0.196-0.519 0-0.718 0.196-0.197 0.515-0.197 0.71 0l2.807 2.864c0.196 0.199 0.196 0.52 0 0.717l-2.807 2.864c-0.195 0.199-0.514 0.198-0.71 0-0.196-0.197-0.196-0.518 0-0.717l2.302-2.504zM10 0.4c5.302 0 9.6 4.298 9.6 9.6 0 5.303-4.298 9.6-9.6 9.6s-9.6-4.297-9.6-9.6c0-5.302 4.298-9.6 9.6-9.6zM10 18.354c4.613 0 8.354-3.74 8.354-8.354s-3.741-8.354-8.354-8.354c-4.615 0-8.354 3.74-8.354 8.354s3.739 8.354 8.354 8.354z"></path>
</symbol>
<symbol id="icon-open-book" viewBox="0 0 20 20">
<title>open-book</title>
<path d="M10.595 5.196l0.446 1.371c0.369-0.316 0.835-0.599 1.441-0.795 0.59-0.192 1.111-0.3 1.582-0.362l-0.43-1.323c-0.476 0.069-1.001 0.18-1.58 0.368s-1.055 0.45-1.459 0.741zM11.522 8.051l0.446 1.371c0.369-0.316 0.835-0.599 1.441-0.795 0.59-0.192 1.111-0.3 1.582-0.362l-0.43-1.323c-0.476 0.069-1.001 0.18-1.58 0.368-0.578 0.187-1.054 0.449-1.459 0.741zM12.45 10.905l0.446 1.371c0.369-0.316 0.835-0.599 1.441-0.795 0.59-0.192 1.111-0.3 1.582-0.362l-0.43-1.323c-0.476 0.069-1.001 0.18-1.58 0.368-0.579 0.187-1.055 0.45-1.459 0.741zM5.388 13.077l0.43 1.323c0.417-0.226 0.902-0.445 1.492-0.636 0.606-0.197 1.149-0.242 1.633-0.203l-0.446-1.371c-0.499 0.002-1.038 0.070-1.615 0.257-0.579 0.188-1.069 0.406-1.494 0.63zM3.533 7.368l0.43 1.323c0.417-0.226 0.902-0.444 1.492-0.636 0.606-0.197 1.149-0.242 1.633-0.203l-0.445-1.372c-0.499 0.003-1.038 0.070-1.616 0.258-0.579 0.188-1.069 0.406-1.494 0.63zM4.46 10.223l0.43 1.323c0.417-0.226 0.902-0.445 1.492-0.636 0.606-0.197 1.149-0.242 1.633-0.203l-0.445-1.372c-0.499 0.002-1.038 0.070-1.615 0.257-0.579 0.188-1.070 0.407-1.495 0.631zM11.064 1.41c-1.723 0.56-2.623 1.752-3.053 2.559-0.822-0.4-2.25-0.835-3.973-0.275-2.523 0.82-3.969 2.627-3.969 2.627l4.095 12.587c0.126 0.387 0.646 0.477 0.878 0.143 0.499-0.719 1.46-1.658 3.257-2.242 1.718-0.558 2.969 0.054 3.655 0.578 0.272 0.208 0.662 0.060 0.762-0.268 0.252-0.827 0.907-2.040 2.61-2.593 1.799-0.585 3.129-0.389 3.956-0.1 0.385 0.134 0.75-0.242 0.625-0.629l-4.088-12.594c0 0-2.232-0.612-4.755 0.207zM10.951 15.256c-0.819-0.244-1.901-0.358-3.141 0.044-1.251 0.406-2.127 0.949-2.699 1.404l-3.245-9.982c0.358-0.358 1.187-1.042 2.662-1.521 1.389-0.451 2.528-0.065 3.279 0.378l3.144 9.677zM17.845 12.567c-0.731-0.032-1.759 0.044-3.010 0.451-1.24 0.403-2.048 1.132-2.567 1.81l-3.144-9.677c0.346-0.8 1.040-1.782 2.43-2.233 1.474-0.479 2.547-0.413 3.047-0.334l3.244 9.983z"></path>
</symbol>
<symbol id="icon-camera" viewBox="0 0 20 20">
<title>camera</title>
<path d="M10 8c-1.657 0-3 1.344-3 3s1.343 3 3 3c1.656 0 3-1.344 3-3s-1.344-3-3-3zM18 5h-2.4c-0.33 0-0.686-0.256-0.789-0.57l-0.621-1.861c-0.105-0.313-0.459-0.569-0.79-0.569h-6.8c-0.33 0-0.686 0.256-0.789 0.568l-0.622 1.862c-0.104 0.314-0.459 0.57-0.789 0.57h-2.4c-1.1 0-2 0.9-2 2v9c0 1.1 0.9 2 2 2h16c1.1 0 2-0.9 2-2v-9c0-1.1-0.9-2-2-2zM10 16c-2.762 0-5-2.238-5-5s2.238-5 5-5c2.761 0 5 2.238 5 5s-2.239 5-5 5zM17.5 8.2c-0.387 0-0.7-0.314-0.7-0.701 0-0.385 0.313-0.7 0.7-0.7s0.7 0.314 0.7 0.7c0 0.387-0.313 0.701-0.7 0.701z"></path>
</symbol>
<symbol id="icon-magnifying-glass" viewBox="0 0 20 20">
<title>magnifying-glass</title>
<path d="M17.545 15.467l-3.779-3.779c0.57-0.935 0.898-2.035 0.898-3.21 0-3.417-2.961-6.377-6.378-6.377s-6.186 2.769-6.186 6.186c0 3.416 2.961 6.377 6.377 6.377 1.137 0 2.2-0.309 3.115-0.844l3.799 3.801c0.372 0.371 0.975 0.371 1.346 0l0.943-0.943c0.371-0.371 0.236-0.84-0.135-1.211zM4.004 8.287c0-2.366 1.917-4.283 4.282-4.283s4.474 2.107 4.474 4.474c0 2.365-1.918 4.283-4.283 4.283s-4.473-2.109-4.473-4.474z"></path>
</symbol>
<symbol id="icon-mic" viewBox="0 0 20 20">
<title>mic</title>
<path d="M16.399 7.643v2.757c0 2.236-1.643 4.629-5.399 4.959v2.641h2.6c0.22 0 0.4 0.18 0.4 0.4v1.2c0 0.221-0.181 0.4-0.4 0.4h-7.2c-0.22 0-0.4-0.18-0.4-0.4v-1.2c0-0.22 0.18-0.4 0.399-0.4h2.601v-2.641c-3.758-0.33-5.4-2.723-5.4-4.959v-2.757c0-0.221 0.18-0.4 0.4-0.4h0.6c0.22 0 0.4 0.18 0.4 0.4v2.757c0 1.336 1.053 3.6 5 3.6s5-2.264 5-3.6v-2.757c0-0.221 0.18-0.4 0.399-0.4h0.601c0.22-0.001 0.399 0.179 0.399 0.4zM10 12c2.346 0 3-0.965 3-1.6v-3.158h-6v3.158c0 0.635 0.652 1.6 3 1.6zM13 1.6c0-0.637-0.654-1.6-3-1.6-2.348 0-3 0.963-3 1.6v4.242h6v-4.242z"></path>
</symbol>
<symbol id="icon-facebook-with-circle" viewBox="0 0 20 20">
<title>facebook-with-circle</title>
<path d="M10 0.4c-5.302 0-9.6 4.298-9.6 9.6s4.298 9.6 9.6 9.6 9.6-4.298 9.6-9.6-4.298-9.6-9.6-9.6zM12.274 7.034h-1.443c-0.171 0-0.361 0.225-0.361 0.524v1.042h1.805l-0.273 1.486h-1.532v4.461h-1.703v-4.461h-1.545v-1.486h1.545v-0.874c0-1.254 0.87-2.273 2.064-2.273h1.443v1.581z"></path>
</symbol>
<symbol id="icon-facebook" viewBox="0 0 20 20">
<title>facebook</title>
<path d="M17 1h-14c-1.1 0-2 0.9-2 2v14c0 1.101 0.9 2 2 2h7v-7h-2v-2.475h2v-2.050c0-2.164 1.212-3.684 3.766-3.684l1.803 0.002v2.605h-1.197c-0.994 0-1.372 0.746-1.372 1.438v1.69h2.568l-0.568 2.474h-2v7h4c1.1 0 2-0.899 2-2v-14c0-1.1-0.9-2-2-2z"></path>
</symbol>
<symbol id="icon-google" viewBox="0 0 20 20">
<title>google</title>
<path d="M1.989 5.589c0 1.494 0.499 2.572 1.482 3.205 0.806 0.52 1.74 0.598 2.226 0.598 0.118 0 0.213-0.006 0.279-0.010 0 0-0.154 1.004 0.59 1.996h-0.034c-1.289 0-5.493 0.269-5.493 3.727 0 3.516 3.861 3.695 4.636 3.695 0.061 0 0.097-0.002 0.097-0.002 0.008 0 0.063 0.002 0.158 0.002 0.497 0 1.782-0.062 2.975-0.643 1.548-0.75 2.333-2.059 2.333-3.885 0-1.764-1.196-2.814-2.069-3.582-0.533-0.469-0.994-0.873-0.994-1.266 0-0.4 0.337-0.701 0.762-1.082 0.689-0.615 1.339-1.492 1.339-3.15 0-1.457-0.189-2.436-1.354-3.057 0.121-0.062 0.551-0.107 0.763-0.137 0.631-0.086 1.554-0.184 1.554-0.699v-0.099h-4.599c-0.046 0.002-4.651 0.172-4.651 4.389zM9.413 14.602c0.088 1.406-1.115 2.443-2.922 2.574-1.835 0.135-3.345-0.691-3.433-2.096-0.043-0.676 0.254-1.336 0.835-1.863 0.589-0.533 1.398-0.863 2.278-0.928 0.104-0.006 0.207-0.012 0.31-0.012 1.699 0.001 2.849 0.999 2.932 2.325zM8.212 4.626c0.451 1.588-0.23 3.246-1.316 3.553-0.125 0.035-0.253 0.052-0.384 0.052-0.994 0-1.979-1.006-2.345-2.393-0.204-0.776-0.187-1.458 0.047-2.112 0.229-0.645 0.643-1.078 1.163-1.225 0.125-0.035 0.254-0.053 0.385-0.053 1.2 0 1.972 0.498 2.45 2.178zM16 8v-3h-2v3h-3v2h3v3h2v-3h3v-2h-3z"></path>
</symbol>
<symbol id="icon-instagram" viewBox="0 0 20 20">
<title>instagram</title>
<path d="M17 1h-14c-1.1 0-2 0.9-2 2v14c0 1.101 0.9 2 2 2h14c1.1 0 2-0.899 2-2v-14c0-1.1-0.9-2-2-2zM9.984 15.523c3.059 0 5.538-2.481 5.538-5.539 0-0.338-0.043-0.664-0.103-0.984h1.581v7.216c0 0.382-0.31 0.69-0.693 0.69h-12.614c-0.383 0-0.693-0.308-0.693-0.69v-7.216h1.549c-0.061 0.32-0.104 0.646-0.104 0.984 0 3.059 2.481 5.539 5.539 5.539zM6.523 9.984c0-1.912 1.55-3.461 3.462-3.461s3.462 1.549 3.462 3.461-1.551 3.462-3.462 3.462c-1.913 0-3.462-1.55-3.462-3.462zM16.307 6h-1.615c-0.382 0-0.692-0.312-0.692-0.692v-1.617c0-0.382 0.31-0.691 0.691-0.691h1.615c0.384 0 0.694 0.309 0.694 0.691v1.616c0 0.381-0.31 0.693-0.693 0.693z"></path>
</symbol>
<symbol id="icon-twitter-with-circle" viewBox="0 0 20 20">
<title>twitter-with-circle</title>
<path d="M10 0.4c-5.302 0-9.6 4.298-9.6 9.6s4.298 9.6 9.6 9.6 9.6-4.298 9.6-9.6-4.298-9.6-9.6-9.6zM13.905 8.264c0.004 0.082 0.005 0.164 0.005 0.244 0 2.5-1.901 5.381-5.379 5.381-1.068 0-2.062-0.312-2.898-0.85 0.147 0.018 0.298 0.025 0.451 0.025 0.886 0 1.701-0.301 2.348-0.809-0.827-0.016-1.525-0.562-1.766-1.312 0.115 0.021 0.233 0.033 0.355 0.033 0.172 0 0.34-0.023 0.498-0.066-0.865-0.174-1.517-0.938-1.517-1.854v-0.023c0.255 0.141 0.547 0.227 0.857 0.237-0.508-0.34-0.841-0.918-0.841-1.575 0-0.346 0.093-0.672 0.256-0.951 0.933 1.144 2.325 1.896 3.897 1.977-0.033-0.139-0.049-0.283-0.049-0.432 0-1.043 0.846-1.891 1.891-1.891 0.543 0 1.035 0.23 1.38 0.598 0.431-0.086 0.835-0.242 1.2-0.459-0.141 0.441-0.44 0.812-0.831 1.047 0.383-0.047 0.747-0.148 1.086-0.299-0.253 0.379-0.574 0.713-0.943 0.979z"></path>
</symbol>
<symbol id="icon-twitter" viewBox="0 0 20 20">
<title>twitter</title>
<path d="M17.316 6.246c0.008 0.162 0.011 0.326 0.011 0.488 0 4.99-3.797 10.742-10.74 10.742-2.133 0-4.116-0.625-5.787-1.697 0.296 0.035 0.596 0.053 0.9 0.053 1.77 0 3.397-0.604 4.688-1.615-1.651-0.031-3.046-1.121-3.526-2.621 0.23 0.043 0.467 0.066 0.71 0.066 0.345 0 0.679-0.045 0.995-0.131-1.727-0.348-3.028-1.873-3.028-3.703 0-0.016 0-0.031 0-0.047 0.509 0.283 1.092 0.453 1.71 0.473-1.013-0.678-1.68-1.832-1.68-3.143 0-0.691 0.186-1.34 0.512-1.898 1.861 2.285 4.644 3.787 7.781 3.945-0.064-0.277-0.097-0.564-0.097-0.861 0-2.084 1.689-3.773 3.774-3.773 1.086 0 2.067 0.457 2.756 1.191 0.859-0.17 1.667-0.484 2.397-0.916-0.282 0.881-0.881 1.621-1.66 2.088 0.764-0.092 1.49-0.293 2.168-0.594-0.506 0.758-1.146 1.422-1.884 1.953z"></path>
</symbol>
<symbol id="icon-youtube" viewBox="0 0 20 20">
<title>youtube</title>
<path d="M10 2.3c-9.828 0-10 0.874-10 7.7s0.172 7.7 10 7.7 10-0.874 10-7.7-0.172-7.7-10-7.7zM13.205 10.334l-4.49 2.096c-0.393 0.182-0.715-0.022-0.715-0.456v-3.948c0-0.433 0.322-0.638 0.715-0.456l4.49 2.096c0.393 0.184 0.393 0.484 0 0.668z"></path>
</symbol>
</defs>
</svg>
